<svg width="48" height="48" viewBox="0 0 48 48" fill="none" xmlns="http://www.w3.org/2000/svg">
<path d="M24 48C37.2548 48 48 37.2548 48 24C48 10.7452 37.2548 0 24 0C10.7452 0 0 10.7452 0 24C0 37.2548 10.7452 48 24 48Z" fill="white"/>
<path d="M36.4159 10.5757L34.1537 35.5624L23.9848 38.3419L13.8438 35.5663L11.584 10.5757H36.4159Z" fill="#64AFF5"/>
<path d="M16.2048 15.6843L16.4875 18.7493H24.0001H28.3698L28.0869 21.8879H24.0001H16.7647L17.0434 24.9529H24.0001H27.8174L27.4565 28.9279L23.9892 29.8505V29.8509L23.9863 29.8516L20.5241 28.9298L20.3028 26.4854H17.1821L17.6177 31.2979L23.9857 33.0408L24 33.0368V33.0361L30.3622 31.2976L30.4089 30.7799L31.1395 22.7107L31.2154 21.8876L31.7766 15.6841H24L16.2048 15.6843Z" fill="#F3F4F6"/>
</svg>
