<svg width="16" height="22" viewBox="0 0 16 22" fill="none" xmlns="http://www.w3.org/2000/svg">
<path d="M4.4 21.8C6.38823 21.8 8 20.1883 8 18.2V14.6H4.4C2.41178 14.6 0.800003 16.2118 0.800003 18.2C0.800003 20.1883 2.41178 21.8 4.4 21.8Z" fill="#0ACF83"/>
<path d="M0.800003 11C0.800003 9.0118 2.41178 7.40002 4.4 7.40002H8V14.6H4.4C2.41178 14.6 0.800003 12.9883 0.800003 11Z" fill="#A259FF"/>
<path d="M0.800003 3.80001C0.800003 1.81179 2.41178 0.200012 4.4 0.200012H8V7.40001H4.4C2.41178 7.40001 0.800003 5.78824 0.800003 3.80001Z" fill="#F24E1E"/>
<path d="M8 0.200012H11.6C13.5882 0.200012 15.2 1.81179 15.2 3.80001C15.2 5.78824 13.5882 7.40001 11.6 7.40001H8V0.200012Z" fill="#FF7262"/>
<path d="M15.2 11C15.2 12.9883 13.5882 14.6 11.6 14.6C9.61177 14.6 8 12.9883 8 11C8 9.0118 9.61177 7.40002 11.6 7.40002C13.5882 7.40002 15.2 9.0118 15.2 11Z" fill="#1ABCFE"/>
</svg>
