<svg width="28" height="28" viewBox="0 0 28 28" fill="none" xmlns="http://www.w3.org/2000/svg">
<circle cx="14" cy="14" r="14" fill="#F3F4F6"/>
<path fill-rule="evenodd" clip-rule="evenodd" d="M14.0216 2.08984C7.40733 2.08984 2.04382 7.5438 2.04382 14.2721C2.04382 19.6547 5.47582 24.2212 10.235 25.8321C10.8336 25.9448 11.0533 25.5678 11.0533 25.246C11.0533 24.9555 11.0422 23.9958 11.0371 22.9779C7.70485 23.7148 7.00171 21.5405 7.00171 21.5405C6.45685 20.1324 5.67179 19.758 5.67179 19.758C4.58505 19.0019 5.75371 19.0174 5.75371 19.0174C6.95648 19.1031 7.58981 20.2728 7.58981 20.2728C8.6581 22.1352 10.3919 21.5968 11.0754 21.2855C11.1829 20.4983 11.4933 19.9605 11.8358 19.6565C9.17539 19.3484 6.3787 18.3038 6.3787 13.6359C6.3787 12.3058 6.8466 11.219 7.61281 10.3659C7.48845 10.0588 7.07847 8.81998 7.72885 7.14194C7.72885 7.14194 8.73467 6.81452 11.0236 8.39069C11.979 8.12076 13.0037 7.9854 14.0216 7.98076C15.0395 7.9854 16.065 8.12076 17.0222 8.39069C19.3084 6.81452 20.3128 7.14194 20.3128 7.14194C20.9647 8.81998 20.5546 10.0588 20.4302 10.3659C21.1982 11.219 21.6629 12.3058 21.6629 13.6359C21.6629 18.3149 18.8609 19.3452 16.1937 19.6468C16.6233 20.0249 17.0061 20.7662 17.0061 21.9028C17.0061 23.5327 16.9923 24.8446 16.9923 25.246C16.9923 25.5702 17.2079 25.9501 17.815 25.8304C22.5716 24.2178 25.9992 19.6529 25.9992 14.2721C25.9992 7.5438 20.6365 2.08984 14.0216 2.08984Z" fill="#111828"/>
<path fill-rule="evenodd" clip-rule="evenodd" d="M6.58043 19.581C6.55405 19.6418 6.46043 19.6597 6.37514 19.6182C6.28826 19.5784 6.23947 19.4959 6.26763 19.4352C6.29342 19.3729 6.38724 19.3557 6.47392 19.3971C6.56099 19.437 6.61058 19.5203 6.58043 19.581Z" fill="#111828"/>
<path fill-rule="evenodd" clip-rule="evenodd" d="M7.06559 20.1315C7.00846 20.1853 6.89679 20.1603 6.82102 20.0752C6.74268 19.9903 6.728 19.8767 6.78592 19.822C6.84482 19.7682 6.95312 19.7934 7.03167 19.8783C7.11001 19.9642 7.12529 20.077 7.06559 20.1315Z" fill="#111828"/>
<path fill-rule="evenodd" clip-rule="evenodd" d="M7.53787 20.8332C7.46448 20.8851 7.34448 20.8364 7.2703 20.7281C7.19691 20.6198 7.19691 20.4899 7.27189 20.4378C7.34627 20.3858 7.46448 20.4326 7.53966 20.5401C7.61285 20.65 7.61284 20.7802 7.53787 20.8332Z" fill="#111828"/>
<path fill-rule="evenodd" clip-rule="evenodd" d="M8.18482 21.511C8.11917 21.5846 7.97933 21.5648 7.87698 21.4644C7.77226 21.3661 7.7431 21.2267 7.80895 21.1531C7.8754 21.0792 8.01603 21.1 8.11917 21.1997C8.2231 21.2977 8.25483 21.4381 8.18482 21.511Z" fill="#111828"/>
<path fill-rule="evenodd" clip-rule="evenodd" d="M9.07739 21.9045C9.04843 22 8.91375 22.0433 8.77808 22.0028C8.64261 21.961 8.55395 21.8493 8.58132 21.7528C8.60949 21.6568 8.74476 21.6116 8.88142 21.655C9.0167 21.6966 9.10556 21.8075 9.07739 21.9045Z" fill="#111828"/>
<path fill-rule="evenodd" clip-rule="evenodd" d="M10.0576 21.9777C10.061 22.0781 9.94595 22.1615 9.80354 22.1631C9.66033 22.1665 9.5445 22.0852 9.54291 21.9863C9.54291 21.8849 9.65537 21.8024 9.79858 21.7999C9.94099 21.7971 10.0576 21.8778 10.0576 21.9777Z" fill="#111828"/>
<path fill-rule="evenodd" clip-rule="evenodd" d="M10.9699 21.8197C10.9869 21.9178 10.8879 22.0184 10.7465 22.0451C10.6075 22.0711 10.4787 22.0106 10.4611 21.9133C10.4438 21.8129 10.5446 21.7122 10.6834 21.6862C10.8251 21.6611 10.9518 21.7201 10.9699 21.8197Z" fill="#111828"/>
</svg>
