<svg width="21" height="24" viewBox="0 0 21 24" fill="none" xmlns="http://www.w3.org/2000/svg">
<path d="M20.1688 1.20703L18.4298 21.0401L10.6133 23.2463L2.81833 21.0432L1.08125 1.20703H20.1688Z" fill="#FF8A48"/>
<path d="M4.63316 5.26184L4.6903 5.91439L5.27762 12.6187H10.625H13.5592L13.2818 15.7739L10.6168 16.5062V16.5065L10.6146 16.5071L7.95335 15.7754L7.78311 13.8352H5.38446L5.71926 17.655L10.614 19.0385L10.625 19.0354V19.0349L15.5155 17.655L15.5515 17.244L16.1129 10.8392L16.1712 10.1859H10.625H7.46293L7.24461 7.69456H10.6168V7.69471H16.3887L16.4366 7.1478L16.5455 5.91455L16.6026 5.26185H10.625H10.6168L4.63316 5.26184Z" fill="#F3F4F6"/>
</svg>
