<svg width="48" height="48" viewBox="0 0 48 48" fill="none" xmlns="http://www.w3.org/2000/svg">
<path d="M24 48C37.2548 48 48 37.2548 48 24C48 10.7452 37.2548 0 24 0C10.7452 0 0 10.7452 0 24C0 37.2548 10.7452 48 24 48Z" fill="white"/>
<path d="M36.225 9.60938L33.9065 36.0535L23.4845 38.9951L13.0911 36.0576L10.775 9.60938H36.225Z" fill="#FF8A48"/>
<path d="M15.5109 15.0159L15.587 15.8859L16.3701 24.8251H23.4999H27.4122L27.0424 29.032L23.489 30.0084V30.0088L23.4861 30.0096L19.9378 29.034L19.7108 26.447H16.5126L16.959 31.5401L23.4853 33.3847L23.5 33.3806V33.38L30.0207 31.54L30.0686 30.9921L30.8172 22.4523L30.8949 21.5813H23.5H19.2839L18.9928 18.2595H23.4891V18.2597H31.1849L31.2488 17.5305L31.3939 15.8862L31.4701 15.0159H23.5H23.4891L15.5109 15.0159Z" fill="#F3F4F6"/>
</svg>
