<svg width="20" height="20" viewBox="0 0 20 20" fill="none" xmlns="http://www.w3.org/2000/svg">
<path d="M13.7725 0.666687H6.22765C3.16136 0.666687 0.666748 3.16129 0.666748 6.22759V13.7725C0.666748 16.8387 3.16136 19.3334 6.22765 19.3334H13.7725C16.8388 19.3334 19.3334 16.8387 19.3334 13.7725V6.22759C19.3334 3.16129 16.8388 0.666687 13.7725 0.666687ZM17.4555 13.7725C17.4555 15.8065 15.8066 17.4555 13.7725 17.4555H6.22765C4.19358 17.4555 2.54461 15.8065 2.54461 13.7725V6.22759C2.54461 4.19349 4.19358 2.54455 6.22765 2.54455H13.7725C15.8066 2.54455 17.4555 4.19349 17.4555 6.22759V13.7725Z" fill="url(#paint0_linear_237_359)"/>
<path d="M9.99998 5.17212C7.33789 5.17212 5.17212 7.33789 5.17212 9.99995C5.17212 12.662 7.33789 14.8278 9.99998 14.8278C12.6621 14.8278 14.8278 12.662 14.8278 9.99995C14.8278 7.33786 12.6621 5.17212 9.99998 5.17212ZM9.99998 12.95C8.37073 12.95 7.04999 11.6292 7.04999 9.99998C7.04999 8.37073 8.37076 7.04999 9.99998 7.04999C11.6292 7.04999 12.95 8.37073 12.95 9.99998C12.95 11.6292 11.6292 12.95 9.99998 12.95Z" fill="url(#paint1_linear_237_359)"/>
<path d="M14.8373 6.36529C15.4762 6.36529 15.9941 5.84734 15.9941 5.20843C15.9941 4.56952 15.4762 4.05157 14.8373 4.05157C14.1984 4.05157 13.6804 4.56952 13.6804 5.20843C13.6804 5.84734 14.1984 6.36529 14.8373 6.36529Z" fill="url(#paint2_linear_237_359)"/>
<defs>
<linearGradient id="paint0_linear_237_359" x1="10.0001" y1="19.279" x2="10.0001" y2="0.811674" gradientUnits="userSpaceOnUse">
<stop stop-color="#E09B3D"/>
<stop offset="0.3" stop-color="#C74C4D"/>
<stop offset="0.6" stop-color="#C21975"/>
<stop offset="1" stop-color="#7024C4"/>
</linearGradient>
<linearGradient id="paint1_linear_237_359" x1="9.99998" y1="19.279" x2="9.99998" y2="0.811638" gradientUnits="userSpaceOnUse">
<stop stop-color="#E09B3D"/>
<stop offset="0.3" stop-color="#C74C4D"/>
<stop offset="0.6" stop-color="#C21975"/>
<stop offset="1" stop-color="#7024C4"/>
</linearGradient>
<linearGradient id="paint2_linear_237_359" x1="14.8373" y1="19.279" x2="14.8373" y2="0.811702" gradientUnits="userSpaceOnUse">
<stop stop-color="#E09B3D"/>
<stop offset="0.3" stop-color="#C74C4D"/>
<stop offset="0.6" stop-color="#C21975"/>
<stop offset="1" stop-color="#7024C4"/>
</linearGradient>
</defs>
</svg>
