<svg width="48" height="48" viewBox="0 0 48 48" fill="none" xmlns="http://www.w3.org/2000/svg">
<path d="M24 48C37.2548 48 48 37.2548 48 24C48 10.7452 37.2548 0 24 0C10.7452 0 0 10.7452 0 24C0 37.2548 10.7452 48 24 48Z" fill="white"/>
<path d="M11 11H36.3872V36.438H11V11Z" fill="#FFEB35"/>
<path d="M17.6752 32.2578L19.618 31.0797C19.9928 31.7456 20.3338 32.309 21.1516 32.309C21.9355 32.309 22.4298 32.0017 22.4298 30.8065V22.6785H24.8155V30.8403C24.8155 33.3163 23.3671 34.4432 21.2539 34.4432C19.3454 34.4432 18.2375 33.4528 17.6752 32.2576" fill="#303030"/>
<path d="M26.1115 32.0016L28.054 30.8746C28.5654 31.7114 29.23 32.3261 30.4058 32.3261C31.3943 32.3261 32.0247 31.8308 32.0247 31.1478C32.0247 30.3282 31.3772 30.0379 30.2865 29.5599L29.6902 29.3036C27.9689 28.5695 26.8271 27.6474 26.8271 25.7008C26.8271 23.9078 28.1904 22.5417 30.3206 22.5417C31.8373 22.5417 32.928 23.0711 33.7118 24.4543L31.8543 25.6495C31.4453 24.9153 31.0023 24.6251 30.3207 24.6251C29.622 24.6251 29.1789 25.069 29.1789 25.6495C29.1789 26.3667 29.622 26.657 30.6444 27.101L31.2407 27.3572C33.2687 28.2281 34.4105 29.1159 34.4105 31.1137C34.4105 33.2653 32.7234 34.4434 30.457 34.4434C28.2416 34.4434 26.8101 33.3848 26.1115 32.0016" fill="#303030"/>
</svg>
