<svg width="20" height="20" viewBox="0 0 20 20" fill="none" xmlns="http://www.w3.org/2000/svg">
<path d="M0.25 0.25H19.2904V19.3285H0.25V0.25Z" fill="#FFEB35"/>
<path d="M5.25641 16.1934L6.71351 15.3098C6.99461 15.8092 7.25033 16.2318 7.86371 16.2318C8.45166 16.2318 8.82235 16.0013 8.82235 15.1049V9.00891H10.6117V15.1303C10.6117 16.9873 9.52532 17.8325 7.94041 17.8325C6.50903 17.8325 5.67814 17.0897 5.25638 16.1933" fill="#303030"/>
<path d="M11.5836 16.0013L13.0405 15.1561C13.424 15.7837 13.9225 16.2447 14.8043 16.2447C15.5457 16.2447 16.0185 15.8733 16.0185 15.361C16.0185 14.7463 15.5328 14.5285 14.7148 14.1701L14.2676 13.9778C12.9767 13.4272 12.1203 12.7357 12.1203 11.2757C12.1203 9.93101 13.1428 8.90643 14.7405 8.90643C15.878 8.90643 16.696 9.30348 17.2838 10.3408L15.8907 11.2372C15.5839 10.6866 15.2517 10.4689 14.7405 10.4689C14.2165 10.4689 13.8841 10.8019 13.8841 11.2372C13.8841 11.7751 14.2165 11.9929 14.9832 12.3259L15.4305 12.518C16.9515 13.1712 17.8079 13.837 17.8079 15.3354C17.8079 16.9491 16.5426 17.8327 14.8427 17.8327C13.1812 17.8327 12.1075 17.0387 11.5836 16.0013" fill="#303030"/>
</svg>
