<svg width="48" height="48" viewBox="0 0 48 48" fill="none" xmlns="http://www.w3.org/2000/svg">
<path d="M24 48C37.2548 48 48 37.2548 48 24C48 10.7452 37.2548 0 24 0C10.7452 0 0 10.7452 0 24C0 37.2548 10.7452 48 24 48Z" fill="white"/>
<path d="M22.0311 36.8614C21.6981 36.8614 21.3675 36.774 21.0756 36.606L18.0343 34.8054C17.58 34.5514 17.8017 34.4615 17.9515 34.4097C18.5571 34.1977 18.6801 34.1498 19.3265 33.7826C19.3945 33.7439 19.4834 33.7576 19.553 33.7986L21.8894 35.1851C21.9738 35.2307 22.0935 35.2307 22.1718 35.1851L31.2818 29.9265C31.3662 29.8787 31.4209 29.7806 31.4209 29.6803V19.1678C31.4209 19.0629 31.3662 18.9694 31.28 18.9169L22.1736 13.663C22.0892 13.6128 21.9775 13.6128 21.8931 13.663L12.7885 18.9169C12.7002 18.9671 12.6441 19.0651 12.6441 19.1655V29.678C12.6441 29.7783 12.6989 29.8741 12.7855 29.922L15.2803 31.3632C16.6348 32.0404 17.4626 31.2423 17.4626 30.4396V20.0639C17.4626 19.9157 17.5789 19.8017 17.7271 19.8017H18.881C19.0246 19.8017 19.1432 19.9157 19.1432 20.0639V30.4442C19.1432 32.2502 18.1581 33.2878 16.4455 33.2878C15.9188 33.2878 15.5037 33.2878 14.3453 32.7177L11.9555 31.3404C11.3649 30.9983 11 30.3598 11 29.678V19.1655C11 18.4814 11.3649 17.8429 11.9555 17.5054L21.0747 12.2446C21.6516 11.9185 22.4178 11.9185 22.9902 12.2446L32.098 17.5077C32.6863 17.8474 33.0534 18.4837 33.0534 19.1678V29.6803C33.0534 30.3621 32.6863 30.9983 32.098 31.3404L22.9902 36.6012C22.6983 36.7699 22.3676 36.8566 22.0301 36.8566" fill="#689F63"/>
<path d="M24.845 29.6174C20.8589 29.6174 20.0232 27.7877 20.0232 26.253C20.0232 26.107 20.1409 25.9907 20.287 25.9907H21.4637C21.5937 25.9907 21.7031 26.0854 21.7237 26.2137C21.9015 27.4128 22.4306 28.0175 24.8409 28.0175C26.761 28.0175 27.5774 27.5838 27.5774 26.5656C27.5774 25.9796 27.3448 25.544 24.3621 25.2521C21.8673 25.0058 20.3258 24.4563 20.3258 22.4609C20.3258 20.623 21.8764 19.5284 24.4738 19.5284C27.3904 19.5284 28.8361 20.5409 29.0186 22.7163C29.0254 22.7916 28.998 22.8646 28.9479 22.9193C28.8977 22.9717 28.827 23.0037 28.754 23.0037H27.5705C27.4474 23.0037 27.3402 22.917 27.3151 22.7984C27.0301 21.5374 26.3414 21.1338 24.4692 21.1338C22.3736 21.1338 22.1296 21.8635 22.1296 22.4108C22.1296 23.0744 22.4169 23.2682 25.2446 23.6422C28.0448 24.0139 29.3743 24.5384 29.3743 26.5063C29.3743 28.4902 27.7188 29.6281 24.8318 29.6281L24.845 29.6174ZM35.9281 18.4794H36.2336C36.4845 18.4794 36.5324 18.3038 36.5324 18.2012C36.5324 17.9321 36.3477 17.9321 36.245 17.9321H35.9304L35.9281 18.4794ZM35.5564 17.6174H36.2336C36.4662 17.6174 36.9223 17.6174 36.9223 18.1374C36.9223 18.4999 36.6897 18.5752 36.5506 18.6208C36.822 18.639 36.8402 18.8169 36.8767 19.0678C36.895 19.2251 36.9246 19.4965 36.9793 19.5877H36.562C36.5506 19.4965 36.4868 18.9948 36.4868 18.9674C36.4594 18.8557 36.4206 18.801 36.2815 18.801H35.9372V19.59H35.5564V17.6174ZM34.7423 18.598C34.7423 19.4144 35.4013 20.0757 36.2108 20.0757C37.0272 20.0757 37.6862 19.4007 37.6862 18.598C37.6862 17.7794 37.0181 17.1294 36.2086 17.1294C35.4104 17.1294 34.74 17.7702 34.74 18.5957L34.7423 18.598ZM37.969 18.6026C37.969 19.5694 37.1777 20.3584 36.2131 20.3584C35.2554 20.3584 34.4572 19.5786 34.4572 18.6026C34.4572 17.6083 35.2736 16.8467 36.2131 16.8467C37.1595 16.8467 37.9667 17.6106 37.9667 18.6026" fill="#689F63"/>
</svg>
