<svg width="48" height="48" viewBox="0 0 48 48" fill="none" xmlns="http://www.w3.org/2000/svg">
<path d="M24 48C37.2548 48 48 37.2548 48 24C48 10.7452 37.2548 0 24 0C10.7452 0 0 10.7452 0 24C0 37.2548 10.7452 48 24 48Z" fill="white"/>
<path d="M24 26.804C25.2799 26.804 26.3174 25.7724 26.3174 24.4999C26.3174 23.2274 25.2799 22.1958 24 22.1958C22.7201 22.1958 21.6826 23.2274 21.6826 24.4999C21.6826 25.7724 22.7201 26.804 24 26.804Z" fill="#61DAFB"/>
<path d="M24 29.2205C30.8675 29.2205 36.4347 27.107 36.4347 24.4999C36.4347 21.8928 30.8675 19.7793 24 19.7793C17.1324 19.7793 11.5652 21.8928 11.5652 24.4999C11.5652 27.107 17.1324 29.2205 24 29.2205Z" stroke="#61DAFB"/>
<path d="M19.8882 26.8603C23.322 32.7737 27.9465 36.5107 30.2173 35.2071C32.4882 33.9036 31.5454 28.0531 28.1117 22.1397C24.6779 16.2263 20.0534 12.4894 17.7825 13.7929C15.5117 15.0965 16.4544 20.947 19.8882 26.8603Z" stroke="#61DAFB"/>
<path d="M19.8882 22.1398C16.4545 28.0532 15.5117 33.9036 17.7826 35.2072C20.0534 36.5108 24.6779 32.7738 28.1117 26.8604C31.5455 20.947 32.4882 15.0966 30.2174 13.793C27.9465 12.4895 23.322 16.2264 19.8882 22.1398Z" stroke="#61DAFB"/>
</svg>
