<svg width="48" height="48" viewBox="0 0 48 48" fill="none" xmlns="http://www.w3.org/2000/svg">
<path d="M24 48C37.2548 48 48 37.2548 48 24C48 10.7452 37.2548 0 24 0C10.7452 0 0 10.7452 0 24C0 37.2548 10.7452 48 24 48Z" fill="white"/>
<path d="M33.382 25.4846C32.473 25.4898 31.6858 25.7139 31.0256 26.0474C30.7818 25.5523 30.538 25.1197 30.4974 24.7966C30.4517 24.4214 30.3958 24.192 30.4517 23.7438C30.5076 23.2956 30.7615 22.6598 30.7615 22.6077C30.7564 22.5608 30.7056 22.3315 30.1825 22.3262C29.6595 22.321 29.2075 22.4305 29.1567 22.5712C29.1059 22.7119 29.0043 23.035 28.9383 23.3686C28.8469 23.8585 27.8921 25.594 27.3487 26.5061C27.171 26.1517 27.0186 25.839 26.9881 25.5888C26.9424 25.2136 26.8866 24.9842 26.9424 24.536C26.9983 24.0878 27.2522 23.452 27.2522 23.3999C27.2471 23.353 27.1964 23.1236 26.6733 23.1184C26.1502 23.1132 25.6982 23.2227 25.6474 23.3634C25.5966 23.5041 25.5407 23.8377 25.429 24.1608C25.3224 24.4839 24.0527 27.3816 23.7226 28.1373C23.555 28.523 23.4077 28.8305 23.3011 29.039C23.1944 29.2474 23.296 29.0546 23.2859 29.0755C23.1944 29.2527 23.1437 29.3517 23.1437 29.3517V29.3569C23.0726 29.4872 22.9964 29.6123 22.9608 29.6123C22.9354 29.6123 22.8846 29.2631 22.971 28.7836C23.1589 27.7777 23.616 26.209 23.6109 26.1517C23.6109 26.1256 23.6972 25.8494 23.3163 25.7087C22.9456 25.568 22.8135 25.8025 22.7831 25.8025C22.7526 25.8025 22.7272 25.8859 22.7272 25.8859C22.7272 25.8859 23.1386 24.1191 21.94 24.1191C21.1884 24.1191 20.1524 24.9582 19.6394 25.7243C19.3144 25.9067 18.6237 26.2924 17.8924 26.7041C17.6131 26.8605 17.3236 27.0272 17.0494 27.1784L16.9935 27.1158C15.541 25.5263 12.8545 24.4005 12.9662 22.2637C13.0068 21.4872 13.2709 19.4389 18.126 16.9582C22.1025 14.9256 25.2868 15.4832 25.8404 16.7236C26.6276 18.4956 24.1391 21.7894 20.0051 22.2637C18.4307 22.4461 17.6029 21.8207 17.3947 21.5862C17.1763 21.3412 17.1459 21.3308 17.0646 21.3777C16.9326 21.4507 17.0138 21.6696 17.0646 21.7999C17.1865 22.1282 17.6943 22.7119 18.5577 23.0038C19.3144 23.2591 21.163 23.3999 23.3976 22.5139C25.9013 21.5184 27.8566 18.7562 27.2827 16.4474C26.6987 14.0969 22.8999 13.3256 19.3093 14.6337C17.1713 15.4155 14.8554 16.635 13.1897 18.235C11.209 20.1321 10.8941 21.7894 11.0262 22.4774C11.4883 24.9321 14.7843 26.5321 16.1048 27.7152C16.0387 27.7517 15.9778 27.7882 15.9219 27.8194C15.2617 28.153 12.7478 29.5028 12.1181 30.9308C11.4071 32.5465 12.2298 33.7087 12.7783 33.865C14.4745 34.3497 16.2114 33.4794 17.1509 32.0461C18.0854 30.6129 17.9737 28.7523 17.542 27.9028L17.5268 27.8715L18.0448 27.5588C18.38 27.3556 18.7101 27.168 18.9995 27.0064C18.837 27.4598 18.7202 27.9966 18.6593 28.7784C18.5882 29.6957 18.9538 30.8839 19.4363 31.353C19.6496 31.5562 19.9035 31.5615 20.061 31.5615C20.6196 31.5615 20.8735 31.0872 21.1529 30.5191C21.4982 29.8259 21.8029 29.0233 21.8029 29.0233C21.8029 29.0233 21.422 31.1966 22.4631 31.1966C22.844 31.1966 23.2249 30.6911 23.3976 30.4305V30.4357C23.3976 30.4357 23.4077 30.4201 23.4281 30.3836C23.4687 30.3211 23.489 30.2846 23.489 30.2846V30.2742C23.6414 30.0031 23.9816 29.3829 24.4895 28.3562C25.1446 27.0325 25.7744 25.3751 25.7744 25.3751C25.7744 25.3751 25.8353 25.7816 26.0232 26.4487C26.1349 26.8448 26.3787 27.2774 26.5666 27.6996C26.4142 27.9184 26.3228 28.0435 26.3228 28.0435L26.3279 28.0487C26.206 28.2155 26.0689 28.3927 25.9267 28.5699C25.4087 29.2057 24.7891 29.9302 24.7079 30.1386C24.6114 30.3836 24.6317 30.566 24.8196 30.7119C24.9567 30.8162 25.2005 30.837 25.4595 30.8162C25.9267 30.7849 26.2517 30.665 26.4142 30.5921C26.6682 30.4983 26.9577 30.3575 27.237 30.1491C27.7448 29.7634 28.0546 29.2162 28.0242 28.4865C28.0089 28.0852 27.882 27.6891 27.7245 27.3139C27.7702 27.2461 27.8159 27.1784 27.8616 27.1054C28.6641 25.9015 29.2836 24.5777 29.2836 24.5777C29.2836 24.5777 29.3446 24.9842 29.5325 25.6513C29.629 25.9901 29.822 26.3601 29.9946 26.725C29.243 27.3556 28.7707 28.0852 28.6082 28.5647C28.3086 29.4507 28.5422 29.852 28.984 29.9458C29.1821 29.9875 29.4665 29.8937 29.6798 29.7999C29.9439 29.7113 30.2638 29.5601 30.5584 29.336C31.0662 28.9504 31.5538 28.4136 31.5284 27.6891C31.5131 27.3556 31.4268 27.0272 31.31 26.7145C31.9499 26.4435 32.7777 26.2872 33.829 26.4175C36.0889 26.6885 36.5358 28.1373 36.4495 28.7419C36.3632 29.3465 35.8909 29.68 35.7334 29.7843C35.576 29.8833 35.5252 29.9198 35.5404 29.9927C35.5608 30.1022 35.6319 30.097 35.769 30.0761C35.9569 30.0448 36.9574 29.581 36.998 28.4657C37.0589 27.0324 35.7334 25.4689 33.382 25.4846ZM15.9524 31.5145C15.2059 32.3536 14.1546 32.6716 13.7077 32.4005C13.2252 32.1139 13.4131 30.8787 14.3323 29.9875C14.891 29.4455 15.6172 28.9452 16.0946 28.6377C16.2012 28.5699 16.3638 28.4709 16.5567 28.351C16.5872 28.3302 16.6075 28.3198 16.6075 28.3198C16.6431 28.2989 16.6837 28.2728 16.7243 28.2468C17.0646 29.5185 16.7396 30.6338 15.9524 31.5145ZM21.4119 27.7048C21.1529 28.3562 20.6044 30.0292 20.2743 29.9354C19.9899 29.8572 19.8172 28.5908 20.2184 27.3399C20.4215 26.7093 20.8532 25.9588 21.1071 25.667C21.5185 25.1979 21.9654 25.0416 22.0772 25.2344C22.2092 25.4846 21.5744 27.2983 21.4119 27.7048ZM25.9166 29.9145C25.8048 29.9719 25.7033 30.0136 25.6575 29.9823C25.622 29.9614 25.7032 29.8833 25.7032 29.8833C25.7032 29.8833 26.267 29.2631 26.4904 28.9764C26.6174 28.8097 26.7698 28.6168 26.9323 28.3979V28.4605C26.9323 29.211 26.2314 29.7113 25.9166 29.9145ZM29.3903 29.1015C29.309 29.039 29.3192 28.8461 29.5934 28.2416C29.7001 28.0018 29.9439 27.6005 30.3654 27.2201C30.4162 27.3764 30.4466 27.5276 30.4416 27.6683C30.4365 28.6064 29.7864 28.9556 29.3903 29.1015Z" fill="#CF649A"/>
</svg>
